# xmcd
#
# Track frame offsets: 
#        150
#        15821
#        34564
#        47817
#        58226
#        79463
#        102940
#        115935
#        130695
#        150450
#        166263
#
# Disc length: 2924 seconds
#
# Revision: 0
# Processed by: cddbd v1.5.2PL0 Copyright (c) Steve Scherf et al.
# Submitted via: ExactAudioCopy v0.99pb4
#
DISCID=7f0b6a0b
DTITLE=Zoff Voices - Akkord Arbeit
DYEAR=2003
DGENRE=Gothic Rock
TTITLE0=The shoop shoop song
TTITLE1=I can see clearly now
TTITLE2=Autumn
TTITLE3=Chattanooga Choo-Choo
TTITLE4=Free One
TTITLE5=Natural Woman
TTITLE6=Puttin' on the Ritz
TTITLE7=Fascinating Rythm
TTITLE8=To love somebody
TTITLE9=Happy together
TTITLE10=Tabu
EXTD=
EXTT0=
EXTT1=
EXTT2=
EXTT3=
EXTT4=
EXTT5=
EXTT6=
EXTT7=
EXTT8=
EXTT9=
EXTT10=
PLAYORDER=
